# xmcd
#
# Track frame offsets: 
#        150
#        13085
#        24519
#        33865
#        44760
#        55089
#        64303
#        74171
#        85736
#        97685
#        109956
#        120616
#        130892
#        141822
#        152038
#        165058
#        175752
#        187875
#        199145
#        223632
#        243217
#        261557
#        275630
#        284932
#
# Disc length: 3983 seconds
#
# Revision: 0
# Processed by: cddbd v1.5.2PL0 Copyright (c) Steve Scherf et al.
# Submitted via: ExactAudioCopy v0.95b3
#
DISCID=640f8d18
DTITLE=Tommy James and the Shondells  - Anthologie 1966-1970  
DYEAR=1900
DGENRE=
TTITLE0=Hanky Panky
TTITLE1=Say I Am
TTITLE2=Lots Of Pretty Girls
TTITLE3=Good Lovin
TTITLE4=Its Only Love
TTITLE5=Ya! Ya!
TTITLE6=I Think Were Alone Now
TTITLE7=Dont Let My Love Pass You By
TTITLE8=Mirage
TTITLE9=I Like The Way
TTITLE10=Run, Run, Run
TTITLE11=Gettin Together
TTITLE12=Out Of The Blue
TTITLE13=Loves Closin In On Me
TTITLE14=Mony Mony
TTITLE15=1, 2, 3 And I Feel
TTITLE16=Somebody Cares
TTITLE17=Do Something To Me
TTITLE18=Crimson And Clover
TTITLE19=Sweet Cherry Wine
TTITLE20=Crystal Blue Persuasion
TTITLE21=Ball Of Fire
TTITLE22=She
TTITLE23=Gotta Get Back To You
EXTD=
EXTT0=
EXTT1=
EXTT2=
EXTT3=
EXTT4=
EXTT5=
EXTT6=
EXTT7=
EXTT8=
EXTT9=
EXTT10=
EXTT11=
EXTT12=
EXTT13=
EXTT14=
EXTT15=
EXTT16=
EXTT17=
EXTT18=
EXTT19=
EXTT20=
EXTT21=
EXTT22=
EXTT23=
PLAYORDER=
